<svg width="669" height="584" viewBox="729 142 669 584" xmlns="http://www.w3.org/2000/svg"><g transform="translate(729.942 142.438)" fill="none" fill-rule="evenodd"><path d="M.058.563h667v582h-667z"/><path d="M334.214 108.594c-.138.313-36.4 50.955-59 117.469 41.31 13.573 48.176 45.243 51.282 71.375-27.744-102.124-155.26-57.638-134.063 19.875 4.844 17.712 38.385 51.282 76.281 41.562 40.424-10.368 27.33-67.586-6.406-60.313-21.834 4.708-22.476 34.974-1.25 40.407-17.531 4.741-34.126-34.178-3.156-49.375 21.344-10.474 54.096 2.352 59.844 35.75h32.968c5.748-33.398 38.5-46.224 59.844-35.75 30.97 15.197 14.375 54.116-3.156 49.375 21.226-5.433 20.584-35.7-1.25-40.406-33.736-7.274-46.83 49.944-6.406 60.312 37.896 9.72 71.437-23.85 76.281-41.563 21.197-77.512-106.319-121.998-134.063-19.875 3.106-26.13 9.973-57.8 51.282-71.375-22.6-66.513-58.862-117.155-59-117.468h-.032zM317.59 351.875c-2.769 13.768-10.587 25.836-26.906 34.469 32.91 1.688 43.384 38.123 43.531 38.812v.094l.032-.063v-.03c.147-.69 10.621-37.125 43.531-38.813-16.319-8.633-24.137-20.701-26.906-34.469h-33.282z" fill="rgba(153,134,67, .05)"/><rect fill="rgba(153,134,67, .05)" x="303.211" y="328.526" width="62.579" height="20.153" rx="10.076"/></g></svg>