
<svg width="669px" height="584px" viewBox="729 142 669 584" version="1.1" xmlns="http://www.w3.org/2000/svg" xmlns:xlink="http://www.w3.org/1999/xlink">
    <!-- Generator: Sketch 3.8 (29681) - http://www.bohemiancoding.com/sketch -->
    <desc>Created with Sketch.</desc>
    <defs></defs>
    <g id="fleur" stroke="none" stroke-width="1" fill="none" fill-rule="evenodd" transform="translate(729.000000, 142.000000)">
        <g id="svg2">
            <g id="layer1" transform="translate(0.941780, 0.437500)">
                <rect id="Rectangle-2" x="0.05822" y="0.5625" width="667" height="582"></rect>
                <path d="M334.21447,108.59375 C334.07622,108.907299 297.81343,159.549173 275.21447,226.0625 C316.52342,239.63615 323.3898,271.30618 326.49572,297.4375 C298.75199,195.31363 171.235748,239.79967 192.43322,317.3125 C197.277002,335.02475 230.81786,368.59521 268.71447,358.875 C309.13755,348.50678 296.0439,291.2892 262.30822,298.5625 C240.474071,303.26986 239.83219,333.53581 261.05822,338.96875 C243.527,343.71037 226.93245,304.7911 257.90197,289.59375 C279.246494,279.11956 311.99831,291.94581 317.74572,325.34375 L334.21447,325.34375 L334.24572,325.34375 L350.71447,325.34375 C356.46188,291.94581 389.21371,279.11956 410.55822,289.59375 C441.52774,304.7911 424.93321,343.71037 407.40197,338.96875 C428.628,333.53581 427.98614,303.26986 406.15197,298.5625 C372.41629,291.2892 359.32265,348.50678 399.74572,358.875 C437.64233,368.59521 471.1832,335.02475 476.02697,317.3125 C497.22445,239.79967 369.70821,195.31363 341.96447,297.4375 C345.07039,271.30618 351.93676,239.63615 393.24572,226.0625 C370.64676,159.549176 334.38397,108.907299 334.24572,108.59375 C334.24561,108.593505 334.21453,108.593934 334.21447,108.59375 L334.21447,108.59375 Z M317.58947,351.875 C314.8203,365.64264 307.00197,377.71087 290.68322,386.34375 C323.59277,388.03182 334.06695,424.46725 334.21447,425.15625 L334.21447,425.25 C334.21447,425.24914 334.24521,425.19017 334.24572,425.1875 C334.24594,425.18635 334.2454,425.15773 334.24572,425.15625 C334.39324,424.46725 344.86743,388.03182 377.77697,386.34375 C361.45822,377.71087 353.6399,365.64264 350.87072,351.875 L334.24572,351.875 L334.21447,351.875 L317.58947,351.875 L317.58947,351.875 Z" id="path3178" fill="rgba(153,134,67, .05)"></path>
                <rect id="rect2392" fill="rgba(153,134,67, .05)" x="303.21054" y="328.52594" width="62.578949" height="20.152544" rx="10.076272"></rect>
            </g>
        </g>
    </g>
</svg>
